<mxfile host="app.diagrams.net" modified="2021-10-29T15:52:11.406Z" agent="5.0 (X11)" etag="SSDP753lyWxZzE_o4WoC" version="15.6.2" type="github">
  <diagram name="Page-1" id="2a216829-ef6e-dabb-86c1-c78162f3ba2b">
    <mxGraphModel dx="572" dy="791" grid="1" gridSize="10" guides="1" tooltips="1" connect="1" arrows="1" fold="1" page="1" pageScale="1" pageWidth="850" pageHeight="1100" background="none" math="0" shadow="0">
      <root>
        <mxCell id="0" />
        <mxCell id="1" parent="0" />
        <mxCell id="7a84cebc1def654-32" value="" style="shape=message;whiteSpace=wrap;html=1;" parent="1" vertex="1">
          <mxGeometry x="1090" y="895" width="40" height="30" as="geometry" />
        </mxCell>
        <mxCell id="7a84cebc1def654-33" value="" style="shape=message;whiteSpace=wrap;html=1;" parent="1" vertex="1">
          <mxGeometry x="1260" y="895" width="40" height="30" as="geometry" />
        </mxCell>
        <mxCell id="7a84cebc1def654-34" value="" style="shape=message;whiteSpace=wrap;html=1;" parent="1" vertex="1">
          <mxGeometry x="945" y="895" width="40" height="30" as="geometry" />
        </mxCell>
        <mxCell id="39rjAd0DbYgPAiGcGsQq-2" value="&lt;div&gt;Navigator&lt;/div&gt;&lt;div&gt;Raspberry Pi 4&lt;br&gt;&lt;/div&gt;" style="rounded=0;whiteSpace=wrap;html=1;" vertex="1" parent="1">
          <mxGeometry x="1165" y="280" width="230" height="90" as="geometry" />
        </mxCell>
        <mxCell id="39rjAd0DbYgPAiGcGsQq-3" value="Touchscreen A" style="rounded=1;whiteSpace=wrap;html=1;" vertex="1" parent="1">
          <mxGeometry x="885" y="260" width="180" height="110" as="geometry" />
        </mxCell>
        <mxCell id="39rjAd0DbYgPAiGcGsQq-4" value="Touchscreen B" style="rounded=1;whiteSpace=wrap;html=1;" vertex="1" parent="1">
          <mxGeometry x="890" y="75" width="180" height="110" as="geometry" />
        </mxCell>
        <mxCell id="39rjAd0DbYgPAiGcGsQq-5" value="&lt;div&gt;Rear Cam&lt;/div&gt;" style="whiteSpace=wrap;html=1;aspect=fixed;" vertex="1" parent="1">
          <mxGeometry x="1530" y="410" width="80" height="80" as="geometry" />
        </mxCell>
        <mxCell id="39rjAd0DbYgPAiGcGsQq-6" value="GPS" style="whiteSpace=wrap;html=1;aspect=fixed;" vertex="1" parent="1">
          <mxGeometry x="1480" y="60" width="80" height="80" as="geometry" />
        </mxCell>
        <mxCell id="39rjAd0DbYgPAiGcGsQq-7" value="D/A encoder" style="rounded=0;whiteSpace=wrap;html=1;" vertex="1" parent="1">
          <mxGeometry x="1510" y="250" width="120" height="60" as="geometry" />
        </mxCell>
        <mxCell id="39rjAd0DbYgPAiGcGsQq-8" value="12V DC Battery" style="shape=cube;whiteSpace=wrap;html=1;boundedLbl=1;backgroundOutline=1;darkOpacity=0.05;darkOpacity2=0.1;" vertex="1" parent="1">
          <mxGeometry x="880" y="520" width="190" height="80" as="geometry" />
        </mxCell>
        <mxCell id="39rjAd0DbYgPAiGcGsQq-9" value="12 -&amp;gt; 5 V" style="rounded=0;whiteSpace=wrap;html=1;" vertex="1" parent="1">
          <mxGeometry x="1215" y="470" width="120" height="60" as="geometry" />
        </mxCell>
        <mxCell id="39rjAd0DbYgPAiGcGsQq-10" value="12 -&amp;gt; 5 V" style="rounded=0;whiteSpace=wrap;html=1;" vertex="1" parent="1">
          <mxGeometry x="1215" y="550" width="120" height="60" as="geometry" />
        </mxCell>
        <mxCell id="39rjAd0DbYgPAiGcGsQq-20" value="" style="endArrow=classic;html=1;rounded=0;exitX=0.5;exitY=0;exitDx=0;exitDy=0;entryX=0.5;entryY=1;entryDx=0;entryDy=0;" edge="1" parent="1" source="39rjAd0DbYgPAiGcGsQq-5" target="39rjAd0DbYgPAiGcGsQq-7">
          <mxGeometry relative="1" as="geometry">
            <mxPoint x="1240" y="410" as="sourcePoint" />
            <mxPoint x="1340" y="410" as="targetPoint" />
            <Array as="points" />
          </mxGeometry>
        </mxCell>
        <mxCell id="39rjAd0DbYgPAiGcGsQq-21" value="Analog Sign." style="edgeLabel;resizable=0;html=1;align=center;verticalAlign=middle;" connectable="0" vertex="1" parent="39rjAd0DbYgPAiGcGsQq-20">
          <mxGeometry relative="1" as="geometry" />
        </mxCell>
        <mxCell id="39rjAd0DbYgPAiGcGsQq-23" value="" style="endArrow=classic;html=1;rounded=0;exitX=0;exitY=0.5;exitDx=0;exitDy=0;entryX=1;entryY=0.5;entryDx=0;entryDy=0;" edge="1" parent="1" source="39rjAd0DbYgPAiGcGsQq-7" target="39rjAd0DbYgPAiGcGsQq-2">
          <mxGeometry relative="1" as="geometry">
            <mxPoint x="1580" y="420" as="sourcePoint" />
            <mxPoint x="1580" y="320" as="targetPoint" />
            <Array as="points">
              <mxPoint x="1460" y="300" />
            </Array>
          </mxGeometry>
        </mxCell>
        <mxCell id="39rjAd0DbYgPAiGcGsQq-24" value="Digital Sign." style="edgeLabel;resizable=0;html=1;align=center;verticalAlign=middle;" connectable="0" vertex="1" parent="39rjAd0DbYgPAiGcGsQq-23">
          <mxGeometry relative="1" as="geometry" />
        </mxCell>
        <mxCell id="39rjAd0DbYgPAiGcGsQq-26" value="" style="endArrow=classic;html=1;rounded=0;exitX=0;exitY=0.5;exitDx=0;exitDy=0;entryX=0.63;entryY=-0.022;entryDx=0;entryDy=0;entryPerimeter=0;" edge="1" parent="1" source="39rjAd0DbYgPAiGcGsQq-6" target="39rjAd0DbYgPAiGcGsQq-2">
          <mxGeometry relative="1" as="geometry">
            <mxPoint x="1520" y="290" as="sourcePoint" />
            <mxPoint x="1405" y="335" as="targetPoint" />
            <Array as="points" />
          </mxGeometry>
        </mxCell>
        <mxCell id="39rjAd0DbYgPAiGcGsQq-27" value="&lt;div&gt;I/O Ports + ACC 3v&lt;/div&gt;" style="edgeLabel;resizable=0;html=1;align=center;verticalAlign=middle;" connectable="0" vertex="1" parent="39rjAd0DbYgPAiGcGsQq-26">
          <mxGeometry relative="1" as="geometry" />
        </mxCell>
        <mxCell id="39rjAd0DbYgPAiGcGsQq-29" value="" style="endArrow=classic;html=1;rounded=0;entryX=0.296;entryY=0.022;entryDx=0;entryDy=0;entryPerimeter=0;exitX=1;exitY=0.345;exitDx=0;exitDy=0;exitPerimeter=0;" edge="1" parent="1" source="39rjAd0DbYgPAiGcGsQq-4" target="39rjAd0DbYgPAiGcGsQq-2">
          <mxGeometry relative="1" as="geometry">
            <mxPoint x="1080" y="110" as="sourcePoint" />
            <mxPoint x="1319.9" y="288.02" as="targetPoint" />
            <Array as="points">
              <mxPoint x="1180" y="170" />
            </Array>
          </mxGeometry>
        </mxCell>
        <mxCell id="39rjAd0DbYgPAiGcGsQq-30" value="USB&amp;nbsp; (touch + power)" style="edgeLabel;resizable=0;html=1;align=center;verticalAlign=middle;" connectable="0" vertex="1" parent="39rjAd0DbYgPAiGcGsQq-29">
          <mxGeometry relative="1" as="geometry" />
        </mxCell>
        <mxCell id="39rjAd0DbYgPAiGcGsQq-31" value="" style="endArrow=classic;html=1;rounded=0;exitX=0;exitY=0;exitDx=0;exitDy=0;" edge="1" parent="1" source="39rjAd0DbYgPAiGcGsQq-2" target="39rjAd0DbYgPAiGcGsQq-4">
          <mxGeometry relative="1" as="geometry">
            <mxPoint x="1080" y="122.95000000000005" as="sourcePoint" />
            <mxPoint x="1243.08" y="291.98" as="targetPoint" />
            <Array as="points">
              <mxPoint x="1130" y="200" />
            </Array>
          </mxGeometry>
        </mxCell>
        <mxCell id="39rjAd0DbYgPAiGcGsQq-32" value="&lt;div&gt;HDMI&lt;/div&gt;" style="edgeLabel;resizable=0;html=1;align=center;verticalAlign=middle;" connectable="0" vertex="1" parent="39rjAd0DbYgPAiGcGsQq-31">
          <mxGeometry relative="1" as="geometry" />
        </mxCell>
        <mxCell id="39rjAd0DbYgPAiGcGsQq-33" value="" style="endArrow=classic;html=1;rounded=0;exitX=-0.004;exitY=0.344;exitDx=0;exitDy=0;entryX=0.994;entryY=0.327;entryDx=0;entryDy=0;entryPerimeter=0;exitPerimeter=0;" edge="1" parent="1" source="39rjAd0DbYgPAiGcGsQq-2" target="39rjAd0DbYgPAiGcGsQq-3">
          <mxGeometry relative="1" as="geometry">
            <mxPoint x="1175" y="290" as="sourcePoint" />
            <mxPoint x="1080" y="182" as="targetPoint" />
            <Array as="points" />
          </mxGeometry>
        </mxCell>
        <mxCell id="39rjAd0DbYgPAiGcGsQq-34" value="&lt;div&gt;HDMI&lt;/div&gt;" style="edgeLabel;resizable=0;html=1;align=center;verticalAlign=middle;" connectable="0" vertex="1" parent="39rjAd0DbYgPAiGcGsQq-33">
          <mxGeometry relative="1" as="geometry" />
        </mxCell>
        <mxCell id="39rjAd0DbYgPAiGcGsQq-35" value="" style="endArrow=classic;html=1;rounded=0;entryX=0;entryY=0.75;entryDx=0;entryDy=0;exitX=1;exitY=0.75;exitDx=0;exitDy=0;" edge="1" parent="1" source="39rjAd0DbYgPAiGcGsQq-3" target="39rjAd0DbYgPAiGcGsQq-2">
          <mxGeometry relative="1" as="geometry">
            <mxPoint x="991.92" y="490" as="sourcePoint" />
            <mxPoint x="1165" y="431.98" as="targetPoint" />
            <Array as="points" />
          </mxGeometry>
        </mxCell>
        <mxCell id="39rjAd0DbYgPAiGcGsQq-36" value="USB (touch)" style="edgeLabel;resizable=0;html=1;align=center;verticalAlign=middle;" connectable="0" vertex="1" parent="39rjAd0DbYgPAiGcGsQq-35">
          <mxGeometry relative="1" as="geometry" />
        </mxCell>
        <mxCell id="39rjAd0DbYgPAiGcGsQq-37" value="" style="endArrow=classic;html=1;rounded=0;entryX=0.75;entryY=1;entryDx=0;entryDy=0;exitX=0;exitY=0.5;exitDx=0;exitDy=0;" edge="1" parent="1" source="39rjAd0DbYgPAiGcGsQq-9" target="39rjAd0DbYgPAiGcGsQq-3">
          <mxGeometry relative="1" as="geometry">
            <mxPoint x="1080" y="122.95000000000005" as="sourcePoint" />
            <mxPoint x="1243.08" y="291.98" as="targetPoint" />
            <Array as="points">
              <mxPoint x="1110" y="440" />
            </Array>
          </mxGeometry>
        </mxCell>
        <mxCell id="39rjAd0DbYgPAiGcGsQq-38" value="USB (power)" style="edgeLabel;resizable=0;html=1;align=center;verticalAlign=middle;" connectable="0" vertex="1" parent="39rjAd0DbYgPAiGcGsQq-37">
          <mxGeometry relative="1" as="geometry" />
        </mxCell>
        <mxCell id="39rjAd0DbYgPAiGcGsQq-39" value="" style="endArrow=classic;html=1;rounded=0;entryX=0;entryY=0.75;entryDx=0;entryDy=0;exitX=0;exitY=0;exitDx=190;exitDy=20;exitPerimeter=0;" edge="1" parent="1" source="39rjAd0DbYgPAiGcGsQq-8" target="39rjAd0DbYgPAiGcGsQq-9">
          <mxGeometry relative="1" as="geometry">
            <mxPoint x="1225" y="510" as="sourcePoint" />
            <mxPoint x="1030" y="380" as="targetPoint" />
            <Array as="points" />
          </mxGeometry>
        </mxCell>
        <mxCell id="39rjAd0DbYgPAiGcGsQq-40" value="DC" style="edgeLabel;resizable=0;html=1;align=center;verticalAlign=middle;" connectable="0" vertex="1" parent="39rjAd0DbYgPAiGcGsQq-39">
          <mxGeometry relative="1" as="geometry" />
        </mxCell>
        <mxCell id="39rjAd0DbYgPAiGcGsQq-41" value="" style="endArrow=classic;html=1;rounded=0;entryX=0;entryY=0.25;entryDx=0;entryDy=0;" edge="1" parent="1" source="39rjAd0DbYgPAiGcGsQq-8" target="39rjAd0DbYgPAiGcGsQq-10">
          <mxGeometry relative="1" as="geometry">
            <mxPoint x="1080" y="558" as="sourcePoint" />
            <mxPoint x="1225" y="525" as="targetPoint" />
            <Array as="points" />
          </mxGeometry>
        </mxCell>
        <mxCell id="39rjAd0DbYgPAiGcGsQq-42" value="DC" style="edgeLabel;resizable=0;html=1;align=center;verticalAlign=middle;" connectable="0" vertex="1" parent="39rjAd0DbYgPAiGcGsQq-41">
          <mxGeometry relative="1" as="geometry" />
        </mxCell>
        <mxCell id="39rjAd0DbYgPAiGcGsQq-43" value="" style="endArrow=classic;html=1;rounded=0;entryX=0.5;entryY=1;entryDx=0;entryDy=0;exitX=0.653;exitY=1;exitDx=0;exitDy=0;exitPerimeter=0;" edge="1" parent="1" source="39rjAd0DbYgPAiGcGsQq-8" target="39rjAd0DbYgPAiGcGsQq-5">
          <mxGeometry relative="1" as="geometry">
            <mxPoint x="1080" y="571.9791666666667" as="sourcePoint" />
            <mxPoint x="1225" y="575" as="targetPoint" />
            <Array as="points">
              <mxPoint x="1360" y="720" />
            </Array>
          </mxGeometry>
        </mxCell>
        <mxCell id="39rjAd0DbYgPAiGcGsQq-44" value="DC" style="edgeLabel;resizable=0;html=1;align=center;verticalAlign=middle;" connectable="0" vertex="1" parent="39rjAd0DbYgPAiGcGsQq-43">
          <mxGeometry relative="1" as="geometry" />
        </mxCell>
      </root>
    </mxGraphModel>
  </diagram>
</mxfile>
